<svg width="24" height="24" viewBox="0 0 24 24" fill="none" xmlns="http://www.w3.org/2000/svg">
<path fill-rule="evenodd" clip-rule="evenodd" d="M10.2593 5.65081C10.6187 5.23148 10.5701 4.60018 10.1508 4.24076C9.73147 3.88134 9.10017 3.9299 8.74074 4.34923L2.74442 11.3449C2.59215 11.5204 2.5 11.7495 2.5 12C2.5 12.2506 2.59215 12.4796 2.7444 12.6551L8.74074 19.6508C9.10017 20.0701 9.73147 20.1187 10.1508 19.7593C10.5701 19.3999 10.6187 18.7686 10.2593 18.3492L5.67422 13H20.5C21.0523 13 21.5 12.5523 21.5 12C21.5 11.4477 21.0523 11 20.5 11H5.67422L10.2593 5.65081Z" fill="#6B4D38"/>
</svg>
