<svg width="24" height="24" viewBox="0 0 24 24" fill="none" xmlns="http://www.w3.org/2000/svg">
<path d="M17.7472 16.5349C17.9081 16.6958 17.9986 16.9141 17.9986 17.1417C17.9986 17.3694 17.9081 17.5877 17.7472 17.7486C17.5862 17.9096 17.3679 18 17.1403 18C16.9126 18 16.6943 17.9096 16.5333 17.7486L12 13.2141L7.46523 17.7472C7.30427 17.9081 7.08595 17.9986 6.85831 17.9986C6.63068 17.9986 6.41236 17.9081 6.25139 17.7472C6.09043 17.5862 6 17.3679 6 17.1403C6 16.9127 6.09043 16.6944 6.25139 16.5334L10.7862 12.0004L6.25282 7.46586C6.09186 7.30491 6.00143 7.0866 6.00143 6.85898C6.00143 6.63135 6.09186 6.41305 6.25282 6.25209C6.41379 6.09114 6.6321 6.00071 6.85974 6.00071C7.08738 6.00071 7.3057 6.09114 7.46666 6.25209L12 10.7866L16.5348 6.25138C16.6957 6.09042 16.914 6 17.1417 6C17.3693 6 17.5876 6.09042 17.7486 6.25138C17.9096 6.41234 18 6.63064 18 6.85826C18 7.08589 17.9096 7.30419 17.7486 7.46515L13.2138 12.0004L17.7472 16.5349Z" fill="#6B4D38"/>
</svg>
