<svg width="24" height="24" viewBox="0 0 24 24" fill="none" xmlns="http://www.w3.org/2000/svg">
<path d="M16.8238 6.38258C17.0657 6.13448 17.3877 5.99732 17.7217 6.00004C18.0557 6.00276 18.3757 6.14516 18.6141 6.39718C18.8525 6.6492 18.9907 6.99113 18.9995 7.35082C19.0084 7.71052 18.8871 8.05984 18.6614 8.32508L11.809 17.5565C11.6912 17.6933 11.549 17.803 11.3909 17.8791C11.2328 17.9553 11.062 17.9963 10.8889 17.9998C10.7158 18.0032 10.5437 17.969 10.3831 17.8992C10.2225 17.8294 10.0766 17.7255 9.9542 17.5935L5.40996 12.6985C5.28341 12.5714 5.18191 12.4183 5.11151 12.2481C5.04111 12.0779 5.00325 11.8941 5.0002 11.7078C4.99715 11.5215 5.02896 11.3365 5.09375 11.1637C5.15853 10.9909 5.25495 10.834 5.37726 10.7022C5.49957 10.5705 5.64527 10.4666 5.80565 10.3968C5.96604 10.3271 6.13783 10.2928 6.31077 10.2961C6.48372 10.2994 6.65428 10.3401 6.81228 10.416C6.97028 10.4918 7.11248 10.6011 7.2304 10.7375L10.8266 14.6095L16.7912 6.42328L16.8238 6.38258Z" fill="#6B4D38"/>
</svg>
