<svg width="14" height="12" viewBox="0 0 14 12" fill="none" xmlns="http://www.w3.org/2000/svg">
<path d="M11.8238 0.382584C12.0657 0.13448 12.3877 -0.00268272 12.7217 3.97663e-05C13.0557 0.00276225 13.3757 0.145157 13.6141 0.397177C13.8525 0.649196 13.9907 0.991129 13.9995 1.35082C14.0084 1.71052 13.8871 2.05984 13.6614 2.32508L6.809 11.5565C6.69117 11.6933 6.54895 11.803 6.39086 11.8791C6.23277 11.9553 6.06205 11.9963 5.8889 11.9998C5.71575 12.0032 5.54373 11.969 5.38313 11.8992C5.22253 11.8294 5.07665 11.7255 4.9542 11.5935L0.409958 6.69846C0.283408 6.57144 0.181906 6.41826 0.111507 6.24806C0.0411069 6.07786 0.00325191 5.89413 0.000200455 5.70783C-0.002851 5.52153 0.0289637 5.33648 0.0937458 5.16371C0.158528 4.99094 0.254951 4.834 0.377262 4.70225C0.499573 4.57049 0.645267 4.46663 0.805652 4.39684C0.966036 4.32706 1.13783 4.29279 1.31077 4.29608C1.48372 4.29936 1.65428 4.34014 1.81228 4.41598C1.97028 4.49181 2.11248 4.60115 2.2304 4.73747L5.82664 8.60951L11.7912 0.423284L11.8238 0.382584Z" fill="#6B4D38" fill-opacity="0.4"/>
</svg>
