<svg width="48" height="48" viewBox="0 0 48 48" fill="none" xmlns="http://www.w3.org/2000/svg">
<rect x="0.5" y="0.5" width="47" height="47" rx="23.5" fill="white"/>
<rect x="0.5" y="0.5" width="47" height="47" rx="23.5" stroke="#E4E3E2"/>
<path d="M24.0329 30.4905L24.0329 30.4905L24.03 30.4921C24.0202 30.4975 24.0099 30.5 24 30.5C23.9901 30.5 23.9798 30.4975 23.97 30.4921L23.9671 30.4905C23.8263 30.4144 21.9316 29.3601 20.0795 27.7039C18.203 26.0259 16.5001 23.8451 16.5 21.5222C16.5013 20.4525 16.9181 19.429 17.6558 18.6758C18.3932 17.9229 19.3907 17.5013 20.4289 17.5C21.7534 17.5001 22.8915 18.0789 23.5972 19.0386L24 19.5864L24.4028 19.0386C25.1085 18.0789 26.2466 17.5001 27.5711 17.5C28.6093 17.5013 29.6068 17.9229 30.3442 18.6758C31.082 19.4291 31.4988 20.4527 31.5 21.5225C31.4997 23.8453 29.797 26.0259 27.9205 27.7039C26.0684 29.3601 24.1737 30.4144 24.0329 30.4905Z" stroke="#6B4D38"/>
</svg>
