<svg width="48" height="48" viewBox="0 0 48 48" fill="none" xmlns="http://www.w3.org/2000/svg">
<rect x="0.5" y="0.5" width="47" height="47" rx="23.5" fill="white"/>
<rect x="0.5" y="0.5" width="47" height="47" rx="23.5" stroke="#E4E3E2"/>
<path d="M32 21.5219C32 26.6273 24.5864 30.7597 24.2707 30.9304C24.1875 30.9761 24.0945 31 24 31C23.9055 31 23.8125 30.9761 23.7293 30.9304C23.4136 30.7597 16 26.6273 16 21.5219C16.0013 20.323 16.4683 19.1737 17.2986 18.3259C18.1288 17.4782 19.2544 17.0014 20.4286 17C21.9036 17 23.195 17.6477 24 18.7424C24.805 17.6477 26.0964 17 27.5714 17C28.7456 17.0014 29.8712 17.4782 30.7014 18.3259C31.5317 19.1737 31.9987 20.323 32 21.5219Z" fill="#6B4D38"/>
</svg>
