<svg width="18" height="18" viewBox="0 0 18 18" fill="none" xmlns="http://www.w3.org/2000/svg">
<path d="M15 7.22993C15 10.8766 9.43982 13.8284 9.20304 13.9503C9.14063 13.9829 9.07087 14 9 14C8.92913 14 8.85937 13.9829 8.79696 13.9503C8.56018 13.8284 3 10.8766 3 7.22993C3.00099 6.37359 3.35125 5.55261 3.97392 4.94709C4.59659 4.34157 5.44084 4.00097 6.32143 4C7.42768 4 8.39625 4.46261 9 5.24456C9.60375 4.46261 10.5723 4 11.6786 4C12.5592 4.00097 13.4034 4.34157 14.0261 4.94709C14.6488 5.55261 14.999 6.37359 15 7.22993Z" fill="#6B4D38"/>
</svg>
