<svg width="32" height="32" viewBox="0 0 32 32" fill="none" xmlns="http://www.w3.org/2000/svg">
<path d="M5 9.33333H27M13.25 14.6667V22.6667M18.75 14.6667V22.6667M6.5 13L7.75 25.3333C7.75 26.0406 8.03973 26.7189 8.55546 27.219C9.07118 27.719 9.77065 28 10.5 28H21.5C22.2293 28 22.9288 27.719 23.4445 27.219C23.9603 26.7189 24.25 26.0406 24.25 25.3333L25.5 13M11.875 9.33333V5.33333C11.875 4.97971 12.0199 4.64057 12.2777 4.39052C12.5356 4.14048 12.8853 4 13.25 4H18.75C19.1147 4 19.4644 4.14048 19.7223 4.39052C19.9801 4.64057 20.125 4.97971 20.125 5.33333V9.33333" stroke="#D1D6DC" stroke-width="2" stroke-linecap="round" stroke-linejoin="round"/>
</svg>
