<svg width="24" height="24" viewBox="0 0 24 24" fill="none" xmlns="http://www.w3.org/2000/svg">
<path fill-rule="evenodd" clip-rule="evenodd" d="M21.9422 1.13973C21.2122 0.409961 20.2222 0 19.19 0C18.1578 0 17.1678 0.409961 16.4378 1.13973L15.5204 2.0584L21.9435 8.48135L22.8596 7.56397C23.2211 7.20249 23.5079 6.77333 23.7036 6.30101C23.8993 5.82868 24 5.32244 24 4.81119C24 4.29993 23.8993 3.79369 23.7036 3.32136C23.5079 2.84904 23.2211 2.41988 22.8596 2.0584L21.9422 1.13973ZM20.1074 10.3161L13.6843 3.89316L1.88909 15.6893C1.63097 15.9475 1.45066 16.273 1.36875 16.6287L0.0335225 22.4094C-0.0162287 22.624 -0.010522 22.8477 0.0501049 23.0595C0.110732 23.2713 0.224283 23.4642 0.380058 23.6199C0.535834 23.7757 0.728705 23.8893 0.940498 23.9499C1.15229 24.0105 1.37603 24.0162 1.59064 23.9665L7.37275 22.6326C7.72803 22.5504 8.05311 22.3702 8.31091 22.1123L20.1074 10.3161Z" fill="#D1D6DC"/>
</svg>
