<svg width="48" height="48" viewBox="0 0 48 48" fill="none" xmlns="http://www.w3.org/2000/svg">
<rect x="0.5" y="0.5" width="47" height="47" rx="23.5" fill="white"/>
<rect x="0.5" y="0.5" width="47" height="47" rx="23.5" stroke="#E4E3E2"/>
<rect width="24" height="24" transform="translate(12 12)" fill="white"/>
<mask id="mask0_2919_8038" style="mask-type:luminance" maskUnits="userSpaceOnUse" x="17" y="13" width="14" height="19">
<path d="M23.9992 30.0063C23.9992 30.0063 18.7285 23.9827 18.7285 20.1104C18.7285 17.2621 21.0915 14.9473 23.9992 14.9473C26.9068 14.9473 29.2698 17.2621 29.2698 20.1104C29.2698 23.9827 23.9992 30.0063 23.9992 30.0063Z" fill="white" stroke="white" stroke-width="2" stroke-linecap="round" stroke-linejoin="round"/>
<path d="M24.0008 22.2616C25.2137 22.2616 26.1969 21.2984 26.1969 20.1103C26.1969 18.9221 25.2137 17.959 24.0008 17.959C22.7879 17.959 21.8047 18.9221 21.8047 20.1103C21.8047 21.2984 22.7879 22.2616 24.0008 22.2616Z" fill="black"/>
</mask>
<g mask="url(#mask0_2919_8038)">
<path d="M34.5377 12.3647H13.4551V33.0171H34.5377V12.3647Z" fill="#6B4D38"/>
</g>
<path d="M30.6759 28.0333C30.5001 27.9796 30.3086 27.9911 30.1418 28.0655C29.975 28.1398 29.8459 28.2711 29.7818 28.4317C29.7176 28.5923 29.7234 28.7697 29.798 28.9265C29.8725 29.0832 30.0099 29.2071 30.1813 29.2719C31.6554 29.7765 32.5714 30.4519 32.5714 31.0365C32.5714 32.1397 29.3107 33.6788 24 33.6788C18.6893 33.6788 15.4286 32.1397 15.4286 31.0365C15.4286 30.4519 16.3446 29.7765 17.8188 29.2728C17.9901 29.2079 18.1275 29.084 18.202 28.9273C18.2766 28.7705 18.2824 28.5932 18.2182 28.4325C18.1541 28.2719 18.025 28.1406 17.8582 28.0663C17.6914 27.992 17.4999 27.9805 17.3241 28.0342C15.1804 28.7649 14 29.8318 14 31.0365C14 33.6111 19.1527 35 24 35C28.8473 35 34 33.6111 34 31.0365C34 29.8318 32.8196 28.7649 30.6759 28.0333Z" fill="#6B4D38"/>
</svg>
