<svg width="20" height="20" viewBox="0 0 20 20" fill="none" xmlns="http://www.w3.org/2000/svg">
<path d="M2.76271 17H18M12.6664 4.64687L15.3332 7.11749M13.8895 3.51202C14.2434 3.18418 14.7234 3 15.2238 3C15.7243 3 16.2043 3.18418 16.5581 3.51202C16.912 3.83987 17.1108 4.28452 17.1108 4.74816C17.1108 5.2118 16.912 5.65645 16.5581 5.9843L5.88199 15.8759C5.67051 16.0718 5.4091 16.2151 5.12195 16.2926L2.56892 16.9827C2.49243 17.0034 2.41135 17.0046 2.33416 16.9863C2.25697 16.968 2.18652 16.9308 2.13018 16.8786C2.07384 16.8264 2.03368 16.7611 2.01391 16.6896C1.99413 16.6181 1.99547 16.543 2.01778 16.4721L2.76271 14.1069C2.84647 13.8412 3.00116 13.5993 3.21251 13.4036L13.8895 3.51202Z" stroke="#6B4D38" stroke-width="2" stroke-linecap="round" stroke-linejoin="round"/>
</svg>
