<svg width="18" height="18" viewBox="0 0 18 18" fill="none" xmlns="http://www.w3.org/2000/svg">
<path fill-rule="evenodd" clip-rule="evenodd" d="M10.5001 15C10.5001 15.2762 10.7239 15.5 11.0001 15.5C11.2762 15.5 11.5001 15.2762 11.5001 15V4.84951L14.0682 9.25198C14.2073 9.49051 14.5135 9.57107 14.752 9.43193C14.9905 9.29279 15.0711 8.98664 14.932 8.74811L11.432 2.74811C11.3182 2.55299 11.0876 2.45842 10.8696 2.51737C10.6515 2.57632 10.5001 2.77416 10.5001 3.00004V15ZM7.50008 3.00004C7.50008 2.7239 7.27622 2.50004 7.00008 2.50004C6.72394 2.50004 6.50008 2.7239 6.50008 3.00004V13.1506L3.93197 8.74811C3.79283 8.50958 3.48667 8.42902 3.24815 8.56816C3.00962 8.7073 2.92905 9.01345 3.06819 9.25198L6.56819 15.252C6.68201 15.4471 6.91251 15.5417 7.13057 15.4827C7.34863 15.4238 7.50008 15.2259 7.50008 15V3.00004Z" fill="#6B4D38"/>
</svg>
