<svg width="24" height="24" viewBox="0 0 24 24" fill="none" xmlns="http://www.w3.org/2000/svg">
<path d="M20.1205 3.43607L3.65752 8.92507C3.59012 8.94749 3.53113 8.98988 3.48839 9.04663C3.44565 9.10337 3.4212 9.17177 3.41827 9.24275C3.41534 9.31373 3.43407 9.38391 3.47199 9.44399C3.5099 9.50406 3.56519 9.55118 3.63052 9.57907L10.0885 12.2361C10.1202 12.2498 10.1549 12.2551 10.1893 12.2514C10.2236 12.2477 10.2564 12.2352 10.2845 12.2151L15.7845 8.21509C15.9685 8.08509 16.1945 8.31109 16.0645 8.49509L11.8045 13.5201C11.7847 13.5481 11.7725 13.5808 11.769 13.615C11.7655 13.6491 11.7708 13.6836 11.7845 13.7151L14.4215 20.3691C14.4493 20.4344 14.4964 20.4898 14.5564 20.5278C14.6164 20.5658 14.6865 20.5846 14.7575 20.5818C14.8285 20.579 14.8969 20.5546 14.9537 20.512C15.0105 20.4693 15.053 20.4104 15.0755 20.3431L20.5645 3.87907C20.5852 3.81736 20.5882 3.75112 20.5733 3.68777C20.5584 3.62443 20.5261 3.5665 20.4801 3.52048C20.4341 3.47447 20.3762 3.44219 20.3128 3.42728C20.2495 3.41237 20.1822 3.41541 20.1205 3.43607Z" fill="#6B4D38"/>
</svg>
