<svg width="18" height="18" viewBox="0 0 18 18" fill="none" xmlns="http://www.w3.org/2000/svg">
<path d="M8.44534 3.4216C8.61992 2.85947 9.38008 2.85947 9.55466 3.42159L10.5713 6.69483C10.6493 6.94623 10.8733 7.11643 11.1259 7.11643H14.4157C14.9806 7.11643 15.2155 7.87277 14.7585 8.22018L12.097 10.2432C11.8926 10.3985 11.8071 10.6739 11.8851 10.9253L12.9017 14.1986C13.0763 14.7607 12.4613 15.2281 12.0043 14.8807L9.3428 12.8577C9.13839 12.7024 8.86161 12.7024 8.6572 12.8577L5.99573 14.8807C5.53866 15.2281 4.92368 14.7607 5.09827 14.1986L6.11486 10.9253C6.19293 10.6739 6.1074 10.3985 5.903 10.2432L3.24152 8.22018C2.78446 7.87277 3.01936 7.11643 3.58432 7.11643H6.87408C7.12674 7.11643 7.35067 6.94623 7.42875 6.69483L8.44534 3.4216Z" fill="#6B4D38"/>
</svg>
