<svg width="32" height="32" viewBox="0 0 32 32" fill="none" xmlns="http://www.w3.org/2000/svg">
<path d="M14.7982 4.84319C15.1765 3.71894 16.8235 3.71893 17.2018 4.84319L19.4044 11.3897C19.5735 11.8925 20.0587 12.2329 20.6061 12.2329H27.734C28.9581 12.2329 29.467 13.7455 28.4767 14.4404L22.7102 18.4863C22.2673 18.797 22.082 19.3478 22.2511 19.8506L24.4538 26.3971C24.832 27.5214 23.4996 28.4562 22.5093 27.7614L16.7427 23.7155C16.2999 23.4047 15.7001 23.4047 15.2573 23.7155L9.49074 27.7614C8.50043 28.4562 7.16798 27.5214 7.54624 26.3971L9.74886 19.8506C9.91802 19.3478 9.7327 18.797 9.28982 18.4863L3.5233 14.4404C2.53299 13.7455 3.04194 12.2329 4.26603 12.2329H11.3938C11.9413 12.2329 12.4264 11.8925 12.5956 11.3897L14.7982 4.84319Z" fill="#6B4D38"/>
</svg>
