<svg width="24" height="24" viewBox="0 0 24 24" fill="none" xmlns="http://www.w3.org/2000/svg">
<path d="M6 3.5C6 2.94771 6.44772 2.5 7 2.5H17C17.5523 2.5 18 2.94772 18 3.5V18.9904C18 19.8944 16.8958 20.3344 16.274 19.6782L12.726 15.9329C12.3315 15.5166 11.6685 15.5166 11.274 15.933L7.72595 19.6782C7.10424 20.3344 6 19.8944 6 18.9904V3.5Z" fill="white"/>
<path d="M6.5 3.5C6.5 3.22386 6.72386 3 7 3H17C17.2761 3 17.5 3.22386 17.5 3.5V18.9904C17.5 19.4424 16.9479 19.6624 16.637 19.3343L13.0889 15.5891C12.4973 14.9646 11.5027 14.9646 10.9111 15.5891L7.36298 19.3343C7.05212 19.6624 6.5 19.4424 6.5 18.9904V3.5Z" stroke="#6B4D38" stroke-opacity="0.5"/>
</svg>
