<svg width="32" height="32" viewBox="0 0 32 32" fill="none" xmlns="http://www.w3.org/2000/svg">
<path fill-rule="evenodd" clip-rule="evenodd" d="M24.2852 6.9498C23.6768 6.34164 22.8518 6 21.9917 6C21.1315 6 20.3065 6.34164 19.6981 6.9498L18.9336 7.71538L24.2862 13.068L25.0497 12.3035C25.351 12.0022 25.59 11.6446 25.753 11.251C25.9161 10.8574 26 10.4355 26 10.0094C26 9.58338 25.9161 9.16149 25.753 8.76788C25.59 8.37426 25.351 8.01662 25.0497 7.71538L24.2852 6.9498ZM22.7562 14.597L17.4036 9.24439L7.57424 19.0748C7.35915 19.2899 7.20889 19.5612 7.14063 19.8577L6.02794 24.675C5.98648 24.8538 5.99123 25.0403 6.04175 25.2168C6.09228 25.3933 6.1869 25.554 6.31672 25.6838C6.44653 25.8136 6.60725 25.9083 6.78375 25.9588C6.96024 26.0093 7.14669 26.0141 7.32553 25.9726L12.144 24.861C12.44 24.7925 12.7109 24.6423 12.9258 24.4274L22.7562 14.597Z" fill="#6B4D38"/>
</svg>
