<svg width="32" height="32" viewBox="0 0 32 32" fill="none" xmlns="http://www.w3.org/2000/svg">
<path d="M26 12.8139C26 19.3779 16.733 24.691 16.3384 24.9105C16.2344 24.9692 16.1181 25 16 25C15.8819 25 15.7656 24.9692 15.6616 24.9105C15.267 24.691 6 19.3779 6 12.8139C6.00165 11.2725 6.58541 9.7947 7.6232 8.70476C8.66099 7.61483 10.0681 7.00174 11.5357 7C13.3795 7 14.9938 7.8327 16 9.24022C17.0063 7.8327 18.6205 7 20.4643 7C21.9319 7.00174 23.339 7.61483 24.3768 8.70476C25.4146 9.7947 25.9983 11.2725 26 12.8139Z" fill="#6B4D38"/>
</svg>
