<svg width="52" height="52" viewBox="0 0 52 52" fill="none" xmlns="http://www.w3.org/2000/svg">
<path fill-rule="evenodd" clip-rule="evenodd" d="M28.5525 6.17481C26.9273 5.45215 25.0719 5.45215 23.4467 6.17481C22.3142 6.67836 21.496 7.60103 20.7847 8.60534C20.0796 9.60073 19.3038 10.9408 18.3601 12.571L6.45553 33.1335C5.50824 34.7697 4.72973 36.1143 4.21601 37.2247C3.69791 38.3447 3.30401 39.5169 3.43281 40.7523C3.61757 42.5245 4.54606 44.1349 5.98719 45.1827C6.9918 45.9132 8.20363 46.1596 9.43242 46.2724C10.6508 46.3841 12.2045 46.3841 14.0951 46.3841H37.904C39.7946 46.3841 41.3484 46.3841 42.5667 46.2724C43.7955 46.1596 45.0074 45.9132 46.012 45.1827C47.4531 44.1349 48.3816 42.5245 48.5663 40.7523C48.6951 39.5169 48.3012 38.3447 47.7831 37.2247C47.2694 36.1143 46.4909 34.7697 45.5436 33.1335L33.639 12.5709C32.6953 10.9408 31.9195 9.60072 31.2145 8.60533C30.5031 7.60102 29.6849 6.67836 28.5525 6.17481ZM26.9679 9.7384C26.3515 9.46428 25.6477 9.46428 25.0312 9.7384C24.8787 9.80622 24.562 10.0198 23.9672 10.8595C23.3781 11.6912 22.691 12.8741 21.6869 14.6086L9.87909 35.0039C8.87139 36.7445 8.18504 37.9339 7.75557 38.8623C7.32175 39.8 7.29448 40.182 7.31177 40.3479C7.38185 41.0201 7.73404 41.6309 8.28067 42.0284C8.41553 42.1264 8.75984 42.2943 9.78872 42.3887C10.8073 42.4821 12.1805 42.4841 14.1918 42.4841H37.8074C39.8186 42.4841 41.1919 42.4821 42.2104 42.3887C43.2393 42.2943 43.5836 42.1264 43.7185 42.0284C44.2651 41.6309 44.6173 41.0201 44.6874 40.3479C44.7047 40.182 44.6774 39.8 44.2436 38.8623C43.8141 37.9339 43.1278 36.7445 42.1201 35.0039L30.3123 14.6085C29.3081 12.8741 28.621 11.6912 28.0319 10.8595C27.4372 10.0198 27.1204 9.80622 26.9679 9.7384ZM24.0496 19.5293H27.9495V32.5236H24.0496V19.5293ZM28.5995 37.2882C28.5995 38.7235 27.4355 39.887 25.9996 39.887C24.5636 39.887 23.3996 38.7235 23.3996 37.2882C23.3996 35.8528 24.5636 34.6893 25.9996 34.6893C27.4355 34.6893 28.5995 35.8528 28.5995 37.2882Z" fill="#6B4D38"/>
</svg>
