<svg width="48" height="48" viewBox="0 0 48 48" fill="none" xmlns="http://www.w3.org/2000/svg">
<rect x="0.5" y="0.5" width="47" height="47" rx="23.5" fill="white"/>
<rect x="0.5" y="0.5" width="47" height="47" rx="23.5" stroke="#E4E3E2"/>
<path fill-rule="evenodd" clip-rule="evenodd" d="M31.6618 15.6303C31.0992 15.0678 30.3363 14.7519 29.5408 14.7519C28.7453 14.7519 27.9824 15.0678 27.4198 15.6303L26.7128 16.3383L31.6628 21.2883L32.3688 20.5813C32.6474 20.3027 32.8684 19.9719 33.0192 19.6079C33.17 19.2439 33.2476 18.8538 33.2476 18.4598C33.2476 18.0657 33.17 17.6756 33.0192 17.3116C32.8684 16.9476 32.6474 16.6168 32.3688 16.3383L31.6618 15.6303ZM30.2478 22.7023L25.2978 17.7523L16.2078 26.8433C16.0089 27.0422 15.8699 27.2931 15.8068 27.5673L14.7778 32.0223C14.7394 32.1876 14.7438 32.3601 14.7906 32.5233C14.8373 32.6865 14.9248 32.8351 15.0448 32.9552C15.1649 33.0752 15.3135 33.1628 15.4768 33.2095C15.64 33.2562 15.8124 33.2606 15.9778 33.2223L20.4338 32.1943C20.7076 32.131 20.9581 31.992 21.1568 31.7933L30.2478 22.7023Z" fill="#6B4D38"/>
</svg>
